<svg width="22" height="18" viewBox="0 0 22 18" fill="none" xmlns="http://www.w3.org/2000/svg">
<path d="M0.617188 9.55102L4.9965 0H9.16891L10.6517 3.23933V0H15.8586L16.7206 2.50464L17.6172 0H21.6172V1.1355H18.4449L16.7552 5.67724L14.9966 1.1355H11.7552V8.44904L8.44487 1.1355H5.72073L2.3759 8.44904H4.68625L5.27245 7.01305H8.78969L9.41038 8.44904H11.7552H13.8242V3.37297L15.7552 8.44904H17.6173L19.6173 3.37297V8.44904H21.6172V9.55108H18.9276L16.6862 11.8887L14.4794 9.55108H11.7897H5.30694V16.898H11.7897H14.4794L16.6862 14.5604L18.9276 16.898H21.6172V18H18.3758L16.7206 16.1967L14.962 18H4.09995V9.55102H0.617188Z" fill="white"/>
<path d="M21.6172 16.898V15.3936L19.5827 13.2579L21.6172 11.1781V9.55108L18.0311 13.2579L21.6172 16.898Z" fill="white"/>
<path d="M11.7897 16.898V15.2617H7.34142V14.0928H11.6518V12.4565H7.34142V11.2876H11.7897V9.55108L15.3759 13.2579L11.7897 16.898Z" fill="white"/>
<path d="M7.06556 2.93884L5.99659 5.37668H8.10004L7.06556 2.93884Z" fill="white"/>
</svg>
