<svg width="40" height="40" viewBox="0 0 40 40" fill="none" xmlns="http://www.w3.org/2000/svg">
<rect width="40" height="40" rx="20" fill="url(#paint0_linear_523_244)"/>
<rect x="1" y="1" width="38" height="38" rx="19" stroke="#D9C999" stroke-opacity="0.8" stroke-width="2"/>
<path d="M26.5621 17.4574C26.4857 17.502 24.6671 18.4425 24.6671 20.5279C24.7528 22.9061 26.9621 23.7401 27 23.7401C26.9621 23.7847 26.6665 24.8763 25.7907 26.0205C25.0956 27.0062 24.3242 28 23.1528 28C22.0385 28 21.6385 27.3431 20.3528 27.3431C18.972 27.3431 18.5813 28 17.5242 28C16.3528 28 15.5242 26.953 14.7913 25.9766C13.8391 24.6986 13.0298 22.6931 13.0012 20.7675C12.982 19.7471 13.1919 18.744 13.7248 17.8921C14.477 16.7026 15.8198 15.8952 17.2863 15.8686C18.4099 15.8333 19.4099 16.5875 20.0956 16.5875C20.7528 16.5875 21.9814 15.8686 23.3714 15.8686C23.9714 15.8692 25.5714 16.0376 26.5621 17.4574ZM20.0006 15.6649C19.8006 14.733 20.3528 13.8012 20.8671 13.2068C21.5242 12.4879 22.5621 12 23.4571 12C23.5143 12.9318 23.1522 13.8458 22.505 14.5114C21.9242 15.2302 20.9242 15.7714 20.0006 15.6649Z" fill="white"/>
<defs>
<linearGradient id="paint0_linear_523_244" x1="19.1216" y1="-5.2381" x2="21.8417" y2="39.889" gradientUnits="userSpaceOnUse">
<stop stop-color="#51422F"/>
<stop offset="1" stop-color="#121212"/>
</linearGradient>
</defs>
</svg>
