<svg width="40" height="40" viewBox="0 0 40 40" fill="none" xmlns="http://www.w3.org/2000/svg">
<rect width="40" height="40" rx="20" fill="url(#paint0_linear_251_177)"/>
<rect x="1" y="1" width="38" height="38" rx="19" stroke="#D9C999" stroke-opacity="0.8" stroke-width="2"/>
<path d="M28.1156 23.678C27.9763 24.7366 27.4564 25.7083 26.6531 26.4116C25.8497 27.1149 24.8177 27.5018 23.75 27.4998C17.5469 27.4998 12.5 22.453 12.5 16.2498C12.4981 15.1821 12.8849 14.1502 13.5882 13.3468C14.2916 12.5434 15.2633 12.0235 16.3219 11.8842C16.5896 11.8515 16.8607 11.9063 17.0947 12.0403C17.3287 12.1744 17.5131 12.3805 17.6203 12.628L19.2703 16.3116V16.3209C19.3524 16.5104 19.3863 16.7172 19.369 16.9229C19.3517 17.1286 19.2837 17.3268 19.1711 17.4998C19.157 17.5209 19.1422 17.5405 19.1266 17.56L17.5 19.4881C18.0852 20.6772 19.3289 21.91 20.5336 22.4967L22.4352 20.8787C22.4538 20.8631 22.4734 20.8484 22.4938 20.835C22.6666 20.7197 22.8655 20.6493 23.0725 20.6302C23.2794 20.6111 23.4878 20.6439 23.6789 20.7256L23.6891 20.7303L27.3695 22.3795C27.6174 22.4864 27.8241 22.6706 27.9585 22.9047C28.093 23.1387 28.1481 23.41 28.1156 23.678Z" fill="white"/>
<defs>
<linearGradient id="paint0_linear_251_177" x1="19.1216" y1="-5.2381" x2="21.8417" y2="39.889" gradientUnits="userSpaceOnUse">
<stop stop-color="#51422F"/>
<stop offset="1" stop-color="#121212"/>
</linearGradient>
</defs>
</svg>
