<svg width="24" height="23" viewBox="0 0 24 23" fill="none" xmlns="http://www.w3.org/2000/svg">
<path d="M12.125 2.15625C10.277 2.15625 8.47047 2.70425 6.93389 3.73096C5.39732 4.75766 4.19971 6.21695 3.4925 7.9243C2.7853 9.63165 2.60026 11.5104 2.96079 13.3229C3.32132 15.1354 4.21123 16.8003 5.51798 18.107C6.82472 19.4138 8.48962 20.3037 10.3021 20.6642C12.1146 21.0247 13.9934 20.8397 15.7007 20.1325C17.408 19.4253 18.8673 18.2277 19.894 16.6911C20.9208 15.1545 21.4688 13.348 21.4688 11.5C21.4661 9.02269 20.4809 6.64759 18.7291 4.89586C16.9774 3.14413 14.6023 2.15887 12.125 2.15625ZM16.2273 9.85227L11.196 14.8835C11.1293 14.9503 11.05 15.0034 10.9627 15.0395C10.8755 15.0757 10.782 15.0943 10.6875 15.0943C10.593 15.0943 10.4995 15.0757 10.4123 15.0395C10.325 15.0034 10.2457 14.9503 10.179 14.8835L8.02274 12.7273C7.88787 12.5924 7.8121 12.4095 7.8121 12.2188C7.8121 12.028 7.88787 11.8451 8.02274 11.7102C8.1576 11.5754 8.34052 11.4996 8.53125 11.4996C8.72198 11.4996 8.9049 11.5754 9.03977 11.7102L10.6875 13.3589L15.2102 8.83523C15.277 8.76846 15.3563 8.71548 15.4435 8.67934C15.5308 8.6432 15.6243 8.6246 15.7188 8.6246C15.8132 8.6246 15.9067 8.6432 15.994 8.67934C16.0812 8.71548 16.1605 8.76846 16.2273 8.83523C16.294 8.90201 16.347 8.98129 16.3832 9.06854C16.4193 9.15579 16.4379 9.24931 16.4379 9.34375C16.4379 9.43819 16.4193 9.53171 16.3832 9.61896C16.347 9.70621 16.294 9.78549 16.2273 9.85227Z" fill="url(#paint0_linear_516_340)"/>
<path d="M16.2272 8.83531C16.294 8.90206 16.347 8.98133 16.3832 9.06859C16.4194 9.15584 16.438 9.24937 16.438 9.34383C16.438 9.43828 16.4194 9.53181 16.3832 9.61907C16.347 9.70632 16.294 9.78559 16.2272 9.85234L11.1959 14.8836C11.1292 14.9504 11.0499 15.0034 10.9626 15.0396C10.8754 15.0758 10.7819 15.0944 10.6874 15.0944C10.593 15.0944 10.4994 15.0758 10.4122 15.0396C10.3249 15.0034 10.2456 14.9504 10.1789 14.8836L8.02264 12.7273C7.88778 12.5925 7.81201 12.4096 7.81201 12.2188C7.81201 12.0281 7.88778 11.8452 8.02264 11.7103C8.15751 11.5754 8.34043 11.4997 8.53116 11.4997C8.72189 11.4997 8.90481 11.5754 9.03968 11.7103L10.6874 13.3589L15.2101 8.83531C15.2769 8.76848 15.3562 8.71547 15.4434 8.6793C15.5307 8.64313 15.6242 8.62451 15.7187 8.62451C15.8131 8.62451 15.9066 8.64313 15.9939 8.6793C16.0812 8.71547 16.1604 8.76848 16.2272 8.83531Z" fill="white"/>
<defs>
<linearGradient id="paint0_linear_516_340" x1="5.46758" y1="-1.11406" x2="12.125" y2="36.1441" gradientUnits="userSpaceOnUse">
<stop offset="0.173757" stop-color="#00E66C"/>
<stop offset="0.501595" stop-color="#00863F"/>
<stop offset="1" stop-color="#006B32"/>
</linearGradient>
</defs>
</svg>
