<svg width="40" height="40" viewBox="0 0 40 40" fill="none" xmlns="http://www.w3.org/2000/svg">
<rect width="40" height="40" rx="20" fill="url(#paint0_linear_251_154)"/>
<rect x="1" y="1" width="38" height="38" rx="19" stroke="#D9C999" stroke-opacity="0.8" stroke-width="2"/>
<path d="M27.5 13.75H12.5C12.3342 13.75 12.1753 13.8158 12.0581 13.9331C11.9408 14.0503 11.875 14.2092 11.875 14.375V25C11.875 25.3315 12.0067 25.6495 12.2411 25.8839C12.4755 26.1183 12.7935 26.25 13.125 26.25H26.875C27.2065 26.25 27.5245 26.1183 27.7589 25.8839C27.9933 25.6495 28.125 25.3315 28.125 25V14.375C28.125 14.2092 28.0592 14.0503 27.9419 13.9331C27.8247 13.8158 27.6658 13.75 27.5 13.75ZM26.875 25H13.125V15.7961L19.5773 21.7109C19.6926 21.8168 19.8435 21.8755 20 21.8755C20.1565 21.8755 20.3074 21.8168 20.4227 21.7109L26.875 15.7961V25Z" fill="white"/>
<defs>
<linearGradient id="paint0_linear_251_154" x1="19.1216" y1="-5.2381" x2="21.8417" y2="39.889" gradientUnits="userSpaceOnUse">
<stop stop-color="#51422F"/>
<stop offset="1" stop-color="#121212"/>
</linearGradient>
</defs>
</svg>
