<svg width="40" height="40" viewBox="0 0 40 40" fill="none" xmlns="http://www.w3.org/2000/svg">
<rect width="40" height="40" rx="20" fill="url(#paint0_linear_523_249)"/>
<rect x="1" y="1" width="38" height="38" rx="19" stroke="#D9C999" stroke-opacity="0.8" stroke-width="2"/>
<path d="M28.7511 20.1941C28.7511 19.4747 28.6915 18.9497 28.5626 18.4053H20.1797V21.6525H25.1003C25.0011 22.4594 24.4654 23.6747 23.2749 24.4913L23.2582 24.6L25.9087 26.6123L26.0924 26.6303C27.7788 25.1039 28.7511 22.858 28.7511 20.1941Z" fill="white"/>
<path d="M20.1793 28.75C22.59 28.75 24.6138 27.9722 26.092 26.6305L23.2745 24.4916C22.5206 25.0068 21.5086 25.3666 20.1793 25.3666C17.8182 25.3666 15.8143 23.8402 15.0999 21.7305L14.9952 21.7392L12.2392 23.8295L12.2031 23.9277C13.6714 26.786 16.6872 28.75 20.1793 28.75Z" fill="white"/>
<path d="M15.1001 21.7307C14.9117 21.1863 14.8026 20.6029 14.8026 20.0002C14.8026 19.3973 14.9117 18.814 15.0902 18.2696L15.0852 18.1536L12.2946 16.0298L12.2033 16.0723C11.5982 17.2585 11.251 18.5904 11.251 20.0002C11.251 21.4099 11.5982 22.7418 12.2033 23.9279L15.1001 21.7307Z" fill="white"/>
<path d="M20.1794 14.6333C21.8559 14.6333 22.9868 15.343 23.6317 15.9361L26.1516 13.525C24.604 12.1153 22.59 11.25 20.1794 11.25C16.6873 11.25 13.6714 13.2139 12.2031 16.0722L15.09 18.2694C15.8143 16.1597 17.8183 14.6333 20.1794 14.6333Z" fill="white"/>
<defs>
<linearGradient id="paint0_linear_523_249" x1="19.1216" y1="-5.2381" x2="21.8417" y2="39.889" gradientUnits="userSpaceOnUse">
<stop stop-color="#51422F"/>
<stop offset="1" stop-color="#121212"/>
</linearGradient>
</defs>
</svg>
