<svg width="40" height="40" viewBox="0 0 40 40" fill="none" xmlns="http://www.w3.org/2000/svg">
<rect width="40" height="40" rx="20" fill="url(#paint0_linear_523_254)"/>
<rect x="1" y="1" width="38" height="38" rx="19" stroke="#D9C999" stroke-opacity="0.8" stroke-width="2"/>
<path d="M25.5303 16.0108C25.7251 14.7407 25.5303 13.894 24.8485 13.1125C24.1018 12.2332 22.7383 11.875 20.9852 11.875H15.953C15.5959 11.875 15.3037 12.1355 15.2388 12.4937L13.1285 25.8454C13.0961 26.106 13.2909 26.3339 13.5506 26.3339H16.6673L16.44 27.7017C16.4075 27.9296 16.5699 28.125 16.8296 28.125H19.4593C19.7839 28.125 20.0437 27.897 20.0761 27.604L20.628 24.1521C20.6605 23.859 20.9527 23.631 21.2449 23.631H21.6345C24.1668 23.631 26.1796 22.5889 26.764 19.5929C26.9912 18.3555 26.8938 17.2808 26.2445 16.5644C26.0497 16.3364 25.8225 16.1736 25.5303 16.0108Z" fill="white" fill-opacity="0.4"/>
<path d="M25.5303 16.0108C25.7251 14.7407 25.5303 13.894 24.8485 13.1125C24.1018 12.2332 22.7383 11.875 20.9852 11.875H15.953C15.5959 11.875 15.3037 12.1355 15.2388 12.4937L13.1285 25.8454C13.0961 26.106 13.2909 26.3339 13.5506 26.3339H16.6673L17.414 21.5143C17.4789 21.1561 17.7711 20.8955 18.1282 20.8955H19.6216C22.5435 20.8955 24.8161 19.7232 25.4654 16.2713C25.4978 16.2062 25.4978 16.1085 25.5303 16.0108Z" fill="white" fill-opacity="0.7"/>
<path d="M18.2905 16.0433C18.323 15.8154 18.6152 15.5223 18.9074 15.5223H22.8681C23.3227 15.5223 23.7772 15.5549 24.1668 15.62C24.5239 15.6851 25.1732 15.8479 25.4978 16.0433C25.6926 14.7733 25.4978 13.9266 24.8161 13.145C24.1018 12.2332 22.7383 11.875 20.9852 11.875H15.953C15.5959 11.875 15.3037 12.1355 15.2388 12.4937L13.1285 25.8454C13.0961 26.106 13.2909 26.3339 13.5506 26.3339H16.6673L18.2905 16.0433Z" fill="white"/>
<defs>
<linearGradient id="paint0_linear_523_254" x1="19.1216" y1="-5.2381" x2="21.8417" y2="39.889" gradientUnits="userSpaceOnUse">
<stop stop-color="#51422F"/>
<stop offset="1" stop-color="#121212"/>
</linearGradient>
</defs>
</svg>
