<svg width="40" height="40" viewBox="0 0 40 40" fill="none" xmlns="http://www.w3.org/2000/svg">
<rect width="40" height="40" rx="20" fill="url(#paint0_linear_251_151)"/>
<rect x="1" y="1" width="38" height="38" rx="19" stroke="#D9C999" stroke-opacity="0.8" stroke-width="2"/>
<path d="M28.0413 27.1877C27.9864 27.2827 27.9075 27.3616 27.8124 27.4165C27.7174 27.4713 27.6096 27.5002 27.4998 27.5002H12.4998C12.3902 27.5001 12.2825 27.4711 12.1876 27.4162C12.0926 27.3613 12.0138 27.2824 11.9591 27.1874C11.9043 27.0924 11.8755 26.9847 11.8755 26.875C11.8755 26.7654 11.9044 26.6576 11.9592 26.5627C13.1491 24.5056 14.9827 23.0306 17.1225 22.3314C16.064 21.7013 15.2417 20.7412 14.7817 19.5984C14.3217 18.4557 14.2496 17.1936 14.5764 16.0059C14.9031 14.8182 15.6107 13.7706 16.5905 13.024C17.5703 12.2774 18.768 11.873 19.9998 11.873C21.2317 11.873 22.4294 12.2774 23.4092 13.024C24.389 13.7706 25.0966 14.8182 25.4233 16.0059C25.7501 17.1936 25.678 18.4557 25.218 19.5984C24.758 20.7412 23.9357 21.7013 22.8772 22.3314C25.017 23.0306 26.8506 24.5056 28.0405 26.5627C28.0954 26.6576 28.1245 26.7654 28.1246 26.8751C28.1247 26.9848 28.096 27.0926 28.0413 27.1877Z" fill="white"/>
<defs>
<linearGradient id="paint0_linear_251_151" x1="19.1216" y1="-5.2381" x2="21.8417" y2="39.889" gradientUnits="userSpaceOnUse">
<stop stop-color="#51422F"/>
<stop offset="1" stop-color="#121212"/>
</linearGradient>
</defs>
</svg>
