<svg width="24" height="23" viewBox="0 0 24 23" fill="none" xmlns="http://www.w3.org/2000/svg">
<path d="M12.375 2.15625C10.527 2.15625 8.72047 2.70425 7.18389 3.73096C5.64732 4.75766 4.44971 6.21695 3.7425 7.9243C3.0353 9.63165 2.85026 11.5104 3.21079 13.3229C3.57132 15.1354 4.46123 16.8003 5.76798 18.107C7.07472 19.4138 8.73962 20.3037 10.5521 20.6642C12.3646 21.0247 14.2434 20.8397 15.9507 20.1325C17.658 19.4253 19.1173 18.2277 20.144 16.6911C21.1708 15.1545 21.7188 13.348 21.7188 11.5C21.7161 9.02269 20.7309 6.64759 18.9791 4.89586C17.2274 3.14413 14.8523 2.15887 12.375 2.15625ZM15.7585 13.8665C15.8253 13.9333 15.8783 14.0125 15.9144 14.0998C15.9506 14.187 15.9692 14.2806 15.9692 14.375C15.9692 14.4694 15.9506 14.563 15.9144 14.6502C15.8783 14.7375 15.8253 14.8167 15.7585 14.8835C15.6917 14.9503 15.6125 15.0033 15.5252 15.0394C15.438 15.0755 15.3444 15.0942 15.25 15.0942C15.1556 15.0942 15.062 15.0755 14.9748 15.0394C14.8875 15.0033 14.8083 14.9503 14.7415 14.8835L12.375 12.5161L10.0085 14.8835C9.94174 14.9503 9.86246 15.0033 9.77521 15.0394C9.68796 15.0755 9.59444 15.0942 9.5 15.0942C9.40556 15.0942 9.31205 15.0755 9.2248 15.0394C9.13755 15.0033 9.05827 14.9503 8.99149 14.8835C8.92471 14.8167 8.87174 14.7375 8.8356 14.6502C8.79946 14.563 8.78085 14.4694 8.78085 14.375C8.78085 14.2806 8.79946 14.187 8.8356 14.0998C8.87174 14.0125 8.92471 13.9333 8.99149 13.8665L11.3589 11.5L8.99149 9.13352C8.85662 8.99865 8.78085 8.81573 8.78085 8.625C8.78085 8.43427 8.85662 8.25135 8.99149 8.11648C9.12635 7.98162 9.30927 7.90585 9.5 7.90585C9.69073 7.90585 9.87365 7.98162 10.0085 8.11648L12.375 10.4839L14.7415 8.11648C14.8083 8.04971 14.8875 7.99673 14.9748 7.96059C15.062 7.92445 15.1556 7.90585 15.25 7.90585C15.3444 7.90585 15.438 7.92445 15.5252 7.96059C15.6125 7.99673 15.6917 8.04971 15.7585 8.11648C15.8253 8.18326 15.8783 8.26254 15.9144 8.34979C15.9506 8.43704 15.9692 8.53056 15.9692 8.625C15.9692 8.71944 15.9506 8.81296 15.9144 8.90021C15.8783 8.98746 15.8253 9.06674 15.7585 9.13352L13.3911 11.5L15.7585 13.8665Z" fill="url(#paint0_linear_516_225)"/>
<path d="M15.7584 9.13343L13.391 11.4999L15.7584 13.8664C15.8252 13.9332 15.8782 14.0125 15.9143 14.0997C15.9505 14.187 15.9691 14.2805 15.9691 14.3749C15.9691 14.4694 15.9505 14.5629 15.9143 14.6501C15.8782 14.7374 15.8252 14.8166 15.7584 14.8834C15.6916 14.9502 15.6124 15.0032 15.5251 15.0393C15.4379 15.0755 15.3444 15.0941 15.2499 15.0941C15.1555 15.0941 15.062 15.0755 14.9747 15.0393C14.8875 15.0032 14.8082 14.9502 14.7414 14.8834L12.3749 12.516L10.0084 14.8834C9.94165 14.9502 9.86237 15.0032 9.77512 15.0393C9.68787 15.0755 9.59435 15.0941 9.49991 15.0941C9.40547 15.0941 9.31196 15.0755 9.2247 15.0393C9.13745 15.0032 9.05817 14.9502 8.99139 14.8834C8.92462 14.8166 8.87164 14.7374 8.8355 14.6501C8.79936 14.5629 8.78076 14.4694 8.78076 14.3749C8.78076 14.2805 8.79936 14.187 8.8355 14.0997C8.87164 14.0125 8.92462 13.9332 8.99139 13.8664L11.3588 11.4999L8.99139 9.13343C8.85653 8.99856 8.78076 8.81564 8.78076 8.62491C8.78076 8.43418 8.85653 8.25126 8.99139 8.1164C9.12626 7.98153 9.30918 7.90576 9.49991 7.90576C9.69064 7.90576 9.87356 7.98153 10.0084 8.1164L12.3749 10.4838L14.7414 8.1164C14.8082 8.04962 14.8875 7.99664 14.9747 7.9605C15.062 7.92436 15.1555 7.90576 15.2499 7.90576C15.3444 7.90576 15.4379 7.92436 15.5251 7.9605C15.6124 7.99664 15.6916 8.04962 15.7584 8.1164C15.8252 8.18317 15.8782 8.26245 15.9143 8.3497C15.9505 8.43696 15.9691 8.53047 15.9691 8.62491C15.9691 8.71935 15.9505 8.81287 15.9143 8.90012C15.8782 8.98737 15.8252 9.06665 15.7584 9.13343Z" fill="white"/>
<defs>
<linearGradient id="paint0_linear_516_225" x1="13.0894" y1="-10.6502" x2="30.8073" y2="14.5971" gradientUnits="userSpaceOnUse">
<stop offset="0.416997" stop-color="#C70A27"/>
<stop offset="1" stop-color="#7B0F10"/>
</linearGradient>
</defs>
</svg>
